<svg width="24" height="24" viewBox="0 0 24 24" fill="none" xmlns="http://www.w3.org/2000/svg">
<g id="eye-slash">
<g id="Vector">
<path d="M10.2637 15.0504C10.0957 15.0504 9.92777 14.9852 9.79518 14.8457C9.07036 14.0828 8.6726 13.0687 8.6726 11.9988C8.6726 9.77532 10.3874 7.97046 12.5 7.97046C13.5165 7.97046 14.48 8.38911 15.2048 9.15199C15.3286 9.28224 15.3993 9.45901 15.3993 9.64507C15.3993 9.83114 15.3286 10.0079 15.2048 10.1382L10.7321 14.8457C10.5996 14.9852 10.4316 15.0504 10.2637 15.0504ZM12.5 9.36597C11.1211 9.36597 9.99849 10.5475 9.99849 11.9988C9.99849 12.464 10.1134 12.9106 10.3255 13.3013L13.7375 9.7102C13.3662 9.48692 12.942 9.36597 12.5 9.36597Z" fill="#B7BCC6"/>
<path d="M6.84287 18.0554C6.6926 18.0554 6.5335 17.9995 6.40975 17.8879C5.46394 17.0413 4.61538 15.9993 3.89056 14.7899C2.95359 13.2548 2.95359 10.7522 3.89056 9.20782C6.04734 5.65391 9.18528 3.60716 12.5 3.60716C14.4446 3.60716 16.3628 4.31422 18.0422 5.64461C18.3339 5.8772 18.3958 6.31446 18.1748 6.62147C17.9538 6.92848 17.5384 6.9936 17.2467 6.76102C15.797 5.6074 14.1529 5.00267 12.5 5.00267C9.64492 5.00267 6.91358 6.80754 5.0043 9.96139C4.34136 11.0499 4.34136 12.9478 5.0043 14.0363C5.66725 15.1248 6.42742 16.0644 7.26715 16.8273C7.54117 17.0785 7.57653 17.5158 7.33787 17.8135C7.21412 17.9716 7.02849 18.0554 6.84287 18.0554Z" fill="#B7BCC6"/>
<path d="M12.5 20.3905C11.3244 20.3905 10.1753 20.1393 9.07036 19.6462C8.73447 19.4974 8.57537 19.088 8.71679 18.7345C8.85822 18.381 9.24715 18.2135 9.58304 18.3624C10.52 18.781 11.5012 18.995 12.4912 18.995C15.3462 18.995 18.0776 17.1901 19.9869 14.0363C20.6498 12.9478 20.6498 11.0499 19.9869 9.96139C19.7128 9.50552 19.4123 9.06826 19.0941 8.65891C18.8643 8.3612 18.9085 7.92394 19.1913 7.67275C19.4742 7.43086 19.8896 7.46808 20.1283 7.77509C20.473 8.22165 20.8089 8.70543 21.1094 9.20782C22.0464 10.7429 22.0464 13.2455 21.1094 14.7899C18.9527 18.3438 15.8147 20.3905 12.5 20.3905Z" fill="#B7BCC6"/>
<path d="M13.1099 15.9714C12.8005 15.9714 12.5177 15.7388 12.4558 15.4039C12.3851 15.0224 12.6237 14.6596 12.9862 14.5945C13.9585 14.4084 14.7717 13.5525 14.9485 12.5291C15.0192 12.1477 15.3639 11.9058 15.7263 11.9709C16.0887 12.0454 16.3274 12.4082 16.2567 12.7896C15.9738 14.3991 14.754 15.6737 13.2337 15.9714C13.1895 15.9621 13.1541 15.9714 13.1099 15.9714Z" fill="#B7BCC6"/>
<path d="M3.66073 22C3.49279 22 3.32484 21.9349 3.19225 21.7953C2.93592 21.5255 2.93592 21.079 3.19225 20.8092L9.79518 13.8595C10.0515 13.5897 10.4758 13.5897 10.7321 13.8595C10.9885 14.1293 10.9885 14.5759 10.7321 14.8457L4.12922 21.7953C3.99663 21.9349 3.82868 22 3.66073 22Z" fill="#B7BCC6"/>
<path d="M14.7363 10.3428C14.5684 10.3428 14.4004 10.2777 14.2679 10.1382C14.0115 9.86836 14.0115 9.42179 14.2679 9.15199L20.8708 2.20235C21.1271 1.93255 21.5514 1.93255 21.8077 2.20235C22.0641 2.47215 22.0641 2.91871 21.8077 3.18851L15.2048 10.1382C15.0722 10.2777 14.9043 10.3428 14.7363 10.3428Z" fill="#B7BCC6"/>
</g>
</g>
</svg>
